Coordinates
version=1
nRows=11
nColumns=36
inDegrees=yes

Units are S.I. units (second, meters, Newtons, ...)
If the header above contains a line with 'inDegrees', this indicates whether rotational values are in degrees (yes) or radians (no).

endheader
time	pelvis_tilt	pelvis_list	pelvis_rotation	pelvis_tx	pelvis_ty	pelvis_tz	hip_flexion_r	hip_adduction_r	hip_rotation_r	knee_angle_r	knee_angle_r_beta	ankle_angle_r	subtalar_angle_r	mtp_angle_r	hip_flexion_l	hip_adduction_l	hip_rotation_l	knee_angle_l	knee_angle_l_beta	ankle_angle_l	subtalar_angle_l	mtp_angle_l	lumbar_extension	lumbar_bending	lumbar_rotation	arm_flex_r	arm_add_r	arm_rot_r	elbow_flex_r	pro_sup_r	arm_flex_l	arm_add_l	arm_rot_l	elbow_flex_l	pro_sup_l
      4.80000000	    -16.41623435	     -0.15658415	      0.90127188	      0.07967201	      1.09140018	      0.09292720	     31.30448592	      0.86942801	      1.45028919	     18.76834718	      0.32756945	     13.86118711	    -10.74954189	     -7.49999987	     30.56248732	     -0.75600365	      0.31605091	     19.46627288	      0.33975055	     10.70964197	     -7.92319524	     -7.49999987	     -9.22765545	      1.33580833	     -0.91691566	     19.70971414	     -2.94238987	      8.78123862	     29.97685998	     87.53642910	     16.71488047	     -8.17205691	      8.10250860	     26.97822576	     77.98084801
      4.81666670	    -16.48662668	     -0.31276678	      0.80556586	      0.08231108	      1.09374749	      0.08738864	     31.05206865	      1.30628117	      1.98981227	     19.13242612	      0.33392383	     14.27889837	    -10.71879919	     -7.49999987	     30.71422613	     -0.95259900	      0.68789319	     20.03230275	      0.34962964	     11.12743284	     -7.72122145	     -7.49999987	     -8.90424832	      1.52502711	     -1.61455554	     16.55368649	     -4.06648808	      6.23909828	     27.12266530	     98.44703231	     12.01362477	     -9.22293215	      3.29685115	     25.28499111	     81.71966807
      4.83333330	    -16.17836933	     -0.22402433	      0.79160260	      0.08569119	      1.09265134	      0.07967610	     30.57328131	      1.12800758	      2.15105619	     19.20825091	      0.33524722	     14.78331043	    -10.95129184	     -7.49999987	     30.20965805	     -0.72401809	      0.91379930	     20.17672715	      0.35215032	     11.69731867	     -7.96384698	     -7.49999987	     -8.83903186	      1.59508401	     -1.71281983	     12.83159808	     -6.04302062	      5.96452749	     25.49575767	     98.43709364	      7.88681607	     -9.89687923	      3.20995146	     23.85242783	     81.72968930
      4.85000000	    -17.33539208	     -0.18131715	      0.60333886	      0.07513805	      1.09046367	      0.07881700	     32.14688520	      1.10452102	      2.53822520	     19.76682010	      0.34499609	     15.16260430	    -10.68586217	     -7.49999987	     31.84349894	     -0.46247068	      1.31692570	     20.75916293	      0.36231574	     12.30355259	     -8.41330493	     -7.49999987	     -7.00540970	      1.75506594	     -2.15889740	     10.52158784	     -7.56809907	      5.50559481	     22.29612906	     98.43933595	      4.37490306	    -10.51316124	      2.47952025	     21.86207683	     81.81761537
      4.86666670	    -17.64504986	     -0.03037920	      0.43931892	      0.06907650	      1.09787508	      0.07754744	     32.89940799	      0.82992791	      3.03106232	     20.04044577	      0.34977176	     14.80367435	    -11.24499706	     -7.49999987	     32.53148761	     -0.04934542	      1.71855626	     21.03166040	      0.36707172	     11.71921123	     -9.49804081	     -7.49999987	     -6.70000201	      1.87173547	     -2.56804503	      8.68236170	     -8.96348453	      5.28009084	     19.79131138	     99.11205857	      1.39007825	    -10.85736402	      1.98470500	     19.82996940	     81.34756347
      4.88333330	    -18.41885511	      0.15214942	      0.38536683	      0.06727324	      1.09263848	      0.08116606	     34.14078102	      0.60303886	      3.34925668	     19.99866700	      0.34904259	     14.77278693	    -10.54178083	     -7.49999987	     33.85284012	      0.19819703	      1.84545080	     21.57427605	      0.37654215	     11.35557796	    -10.44119408	     -7.49999987	     -5.85221699	      1.77308821	     -2.84608084	      6.05577971	    -10.12765947	      5.67486882	     18.41544794	     98.96826397	     -2.35913766	    -11.65510245	      2.07410344	     18.60335329	     81.62540975
      4.90000000	    -18.64517593	      0.27359311	      0.31371722	      0.06487725	      1.09843515	      0.08612254	     34.40193257	      0.61275621	      3.39179589	     19.49407901	      0.34023586	     14.46398000	    -10.45785290	     -7.49999987	     34.27455231	      0.22277523	      1.99543570	     21.59155153	      0.37684366	     10.55543928	    -10.66417938	     -7.49999987	     -5.90871234	      1.50303801	     -2.76623413	      3.20278399	    -11.03255675	      5.91723360	     17.37918045	     98.83774382	     -6.30834068	    -12.55629936	      2.41589963	     17.61595894	     81.77859554
      4.91666670	    -19.25549080	      0.27148034	      0.36792182	      0.06321441	      1.09572409	      0.08385961	     35.23468734	      0.69718157	      3.48574361	     19.52658843	      0.34080326	     14.23768935	    -10.56444990	     -7.49999987	     35.40869225	      0.20966757	      2.18476224	     21.86761706	      0.38166192	      9.86343814	    -11.56823188	     -7.49999987	     -5.52907494	      1.60913300	     -3.53865987	      0.80322574	    -12.56468733	     10.50126094	     16.24555616	     97.11530351	    -11.14861004	    -14.05020514	      9.31370289	     17.51061810	     81.84801149
      4.93333330	    -19.65934383	      0.37761572	      0.32754464	      0.06446088	      1.09298180	      0.08346199	     35.77504199	      0.63312687	      3.43384628	     19.44224165	      0.33933113	     13.82866471	    -10.69631156	     -7.49999987	     36.08810158	      0.20750160	      1.96220495	     21.97736902	      0.38357745	      9.63278381	    -11.81414491	     -7.49999987	     -5.46195416	      1.40023777	     -3.94450238	     -2.64348612	    -13.80161846	     10.59125172	     16.37951913	     95.86762704	    -15.86551872	    -14.40420609	     10.14561325	     16.70889046	     80.24322856
      4.95000000	    -19.99351429	      0.54697433	      0.33960794	      0.06447787	      1.09329096	      0.08188000	     36.28306822	      0.41753363	      3.50803993	     19.59301679	      0.34196265	     13.60414716	    -10.78029705	     -7.49999987	     36.66605188	      0.36491592	      1.92475658	     22.22461828	      0.38789276	      9.31163391	    -11.96768843	     -7.49999987	     -5.39678819	      1.13745196	     -3.67551649	     -6.89781162	    -16.16227161	     18.51871877	     18.11990963	     86.04165815	    -20.11880936	    -17.15125021	     56.37336779	     17.33571082	     44.80721840
      4.96666670	    -19.88851601	      0.78338615	      0.20868788	      0.06591472	      1.09625614	      0.08182362	     36.19918576	      0.20472190	      3.51755316	     19.51905550	      0.34067179	     13.41115290	    -10.75647015	     -7.49999987	     36.66237263	      0.51445366	      1.86203806	     22.44151515	      0.39167833	      8.93535123	    -12.27926326	     -7.49999987	     -5.59556234	      0.58442551	     -2.91029889	    -11.15246087	    -17.75648873	     20.06673137	     19.61850495	     86.48303370	    -24.21903180	    -17.75555654	     69.41961934	     19.05034131	     45.52832348
